<svg data-v-423bf9ae="" xmlns="http://www.w3.org/2000/svg" viewBox="0 0 405.6472836384912 60" class="font"><!----><!----><!----><g data-v-423bf9ae="" id="a022cb48-986a-4128-89db-587e9d693209" fill="white" transform="matrix(5.628517904206723,0,0,5.628517904206723,-3.095679413385909,-21.72608033856332)"><path d="M4.12 14.52C6.41 14.52 7.67 13.31 7.67 11.51C7.67 10.12 6.92 9.11 5.15 8.79L4.12 8.61C2.91 8.41 2.49 7.97 2.49 7.17C2.49 6.22 3.12 5.71 4.27 5.71C5.35 5.71 6.06 6.15 6.59 6.80L7.57 5.82C6.90 4.94 5.81 4.41 4.27 4.41C2.20 4.41 0.91 5.40 0.91 7.24C0.91 8.54 1.57 9.65 3.42 9.95L4.48 10.12C5.66 10.32 6.09 10.75 6.09 11.59C6.09 12.63 5.40 13.22 4.17 13.22C3.12 13.22 2.30 12.80 1.55 11.91L0.55 12.88C1.29 13.86 2.42 14.52 4.12 14.52ZM9.58 14.35L11.10 14.35L11.10 9.45C11.10 8.61 11.89 8.20 12.67 8.20C13.65 8.20 14.17 8.78 14.17 9.93L14.17 14.35L15.69 14.35L15.69 9.70C15.69 7.95 14.71 6.96 13.26 6.96C12.07 6.96 11.48 7.60 11.17 8.36L11.10 8.36L11.10 3.99L9.58 3.99ZM24.63 14.35L24.63 13.15L23.72 13.15L23.72 9.52C23.72 7.87 22.60 6.96 20.78 6.96C19.25 6.96 18.27 7.62 17.86 8.40L18.77 9.14C19.17 8.54 19.71 8.15 20.64 8.15C21.67 8.15 22.19 8.65 22.19 9.62L22.19 10.18L20.80 10.18C18.66 10.18 17.64 10.93 17.64 12.33C17.64 13.69 18.59 14.52 20.06 14.52C21.20 14.52 21.95 14 22.23 13.13L22.30 13.13C22.39 13.86 22.82 14.35 23.69 14.35ZM20.50 13.40C19.68 13.40 19.18 13.06 19.18 12.42L19.18 12.14C19.18 11.49 19.71 11.14 20.83 11.14L22.19 11.14L22.19 12.19C22.19 12.91 21.48 13.40 20.50 13.40ZM26.38 14.35L27.90 14.35L27.90 9.45C27.90 8.61 28.69 8.20 29.47 8.20C30.45 8.20 30.97 8.78 30.97 9.93L30.97 14.35L32.49 14.35L32.49 9.70C32.49 7.95 31.51 6.96 30.06 6.96C28.87 6.96 28.28 7.60 27.97 8.36L27.90 8.36L27.90 3.99L26.38 3.99ZM34.66 14.35L40.73 14.35L40.73 13.12L38.11 13.12L38.11 10.42C38.11 9.41 38.77 8.58 40.01 8.58L41.44 8.58L41.44 7.13L40.57 7.13C39.10 7.13 38.47 8.04 38.19 9.04L38.11 9.04L38.11 7.13L34.66 7.13L34.66 8.36L36.58 8.36L36.58 13.12L34.66 13.12ZM46.65 5.81C47.40 5.81 47.68 5.45 47.68 4.98L47.68 4.69C47.68 4.23 47.40 3.86 46.63 3.86C45.88 3.86 45.60 4.23 45.60 4.69L45.60 4.98C45.60 5.45 45.88 5.81 46.65 5.81ZM43.41 14.35L49.71 14.35L49.71 13.12L47.40 13.12L47.40 7.13L43.41 7.13L43.41 8.36L45.88 8.36L45.88 13.12L43.41 13.12ZM58.23 14.35L58.23 13.15L57.32 13.15L57.32 9.52C57.32 7.87 56.20 6.96 54.38 6.96C52.85 6.96 51.87 7.62 51.46 8.40L52.37 9.14C52.77 8.54 53.31 8.15 54.24 8.15C55.27 8.15 55.79 8.65 55.79 9.62L55.79 10.18L54.40 10.18C52.26 10.18 51.24 10.93 51.24 12.33C51.24 13.69 52.19 14.52 53.66 14.52C54.80 14.52 55.55 14 55.83 13.13L55.90 13.13C55.99 13.86 56.42 14.35 57.29 14.35ZM54.10 13.40C53.28 13.40 52.78 13.06 52.78 12.42L52.78 12.14C52.78 11.49 53.31 11.14 54.43 11.14L55.79 11.14L55.79 12.19C55.79 12.91 55.08 13.40 54.10 13.40ZM59.86 14.35L65.93 14.35L65.93 13.12L63.31 13.12L63.31 10.42C63.31 9.41 63.97 8.58 65.21 8.58L66.64 8.58L66.64 7.13L65.77 7.13C64.30 7.13 63.67 8.04 63.39 9.04L63.31 9.04L63.31 7.13L59.86 7.13L59.86 8.36L61.78 8.36L61.78 13.12L59.86 13.12ZM71.40 14.49C72.28 14.49 72.62 14.06 72.62 13.52L72.62 13.16C72.62 12.63 72.28 12.19 71.40 12.19C70.52 12.19 70.18 12.63 70.18 13.16L70.18 13.52C70.18 14.06 70.52 14.49 71.40 14.49Z"></path></g><!----><!----></svg>